# xmcd
#
# Track frame offsets:
#	150
#	14178
#	26943
#	40765
#	53415
#	64183
#	75390
#	101740
#	122493
#	134765
#	146600
#	162048
#	185308
#	200428
#	211718
#
# Disc length: 3013 seconds
#
# Revision: 0
# Processed by: cddbd v1.4PL0 Copyright (c) Steve Scherf et al.
# Submitted via: EasyCDDAExtractor 4.6.0.1
#
DISCID=ce0bc30f
DTITLE=Banjomania
DYEAR=1990
DGENRE=
TTITLE0=Farewell Blues
TTITLE1=Anything Goes
TTITLE2=Grandfather's Clock
TTITLE3=Cherokee
TTITLE4=Old kentucky home
TTITLE5=I Must Have Done Something Good
TTITLE6=Spanish Galleon
TTITLE7=New Orleans
TTITLE8=Bye Bye Blues
TTITLE9=Blue Room
TTITLE10=Tears
TTITLE11=Alabama Bound
TTITLE12=Paper Moon
TTITLE13=I'm Winging Home
TTITLE14=Under the Double Eagle
EXTD=
EXTT0=
EXTT1=
EXTT2=
EXTT3=
EXTT4=
EXTT5=
EXTT6=
EXTT7=
EXTT8=
EXTT9=
EXTT10=
EXTT11=
EXTT12=
EXTT13=
EXTT14=
PLAYORDER=
